<svg xmlns="http://www.w3.org/2000/svg" version="1.1" xmlns:xlink="http://www.w3.org/1999/xlink" xmlns:svgjs="http://svgjs.com/svgjs" width="1440" height="560" preserveAspectRatio="none" viewBox="0 0 1440 560"><g mask="url(&quot;#SvgjsMask1907&quot;)" fill="none"><rect width="1440" height="560" x="0" y="0" fill="url(#SvgjsLinearGradient1908)"></rect><path d="M 0,549 C 57.6,472.2 172.8,194.4 288,165 C 403.2,135.6 460.8,383.4 576,402 C 691.2,420.6 748.8,259 864,258 C 979.2,257 1036.8,424.8 1152,397 C 1267.2,369.2 1382.4,174.6 1440,119L1440 560L0 560z" fill="rgba(90, 53, 38, 1)"></path><path d="M 0,274 C 41.2,290.4 123.6,388.6 206,356 C 288.4,323.4 329.6,73.8 412,111 C 494.4,148.2 535.6,516.2 618,542 C 700.4,567.8 741.6,256.6 824,240 C 906.4,223.4 947.6,469.2 1030,459 C 1112.4,448.8 1154,183.4 1236,189 C 1318,194.6 1399.2,427.4 1440,487L1440 560L0 560z" fill="rgba(149, 95, 73, 1)"></path></g><defs><mask id="SvgjsMask1907"><rect width="1440" height="560" fill="#ffffff"></rect></mask><linearGradient x1="15.28%" y1="-39.29%" x2="84.72%" y2="139.29%" gradientUnits="userSpaceOnUse" id="SvgjsLinearGradient1908"><stop stop-color="rgba(25, 180, 233, 1)" offset="0"></stop><stop stop-color="rgba(208, 248, 255, 1)" offset="1"></stop></linearGradient></defs></svg>